<?xml version="1.0" encoding="utf-8"?>
<svg version="1.1" id="Layer_1" xmlns="http://www.w3.org/2000/svg" xmlns:xlink="http://www.w3.org/1999/xlink" x="0px" y="0px"
	 viewBox="0 0 1481.578 1703.228" style="enable-background:new 0 0 1481.578 1703.228;" xml:space="preserve">
<path d="M807.611,56.418c11.758-1.78,23.9-1.091,35.465-4.251c4.395-0.93,8.935-0.417,13.41-0.369
	c-1.043,4.154-5.678,5.229-8.806,7.395c-45.05,28.873-75.505,41.918-111.641,88.879c1.604-0.425,212.749-159.285,362.848-35.962
	c25.568,16.143,67.563,74.406,70.914,81.389c-22.196-3.918-96.336-20.105-137.369-9.736
	c-71.956,9.694-123.214,49.811-123.479,54.168c71.821-32.427,271.533-71.186,381.134,67.754
	c40.453,60.511,51.748,81.29,67.931,190.848c-5.78-1.072-5.625-7.346-30.108-36.027c-59.443-84.378-166.491-113.627-271.803-37.005
	c14.647,0.387,259.335-86.071,348.38,218.389c26.049,103.946,8.724,20.513,32.193,156.104c-4.251,0.016-5.71-4.251-7.924-7.042
	c-32.597-42.069-63.199-89.704-138.508-119.693c-47.049-16.824-97.879-27.141-147.058-16.137c13.297,4.283,27.092,7.218,39.94,12.88
	c229.936,82.71,200.278,262.989,226.12,341.194c-10.407-0.151-75.429-20.882-93.018,2.021c-11.633,19.389-3.11,48.904-4.924,63.857
	c7.722,51.593-7.608,122.186-58.002,181.015c-0.802,0.417-2.422,1.283-3.24,1.7c-8.044-26.477-11.888-70.47-31.551-107.486
	c-21.859-47.924-69.712-79.606-113.983-79.079c-20.772-0.481-42.09-0.834-62.044,5.871c-13.49,4.539-27.541,7.17-40.807,12.495
	c-219.334,55.515-446.117,275.641-468.975,530.58c-0.787,8.777,0.681,24.322-3.518,31.443
	c-9.472-20.126-12.341-46.753-16.904-68.539c-47.346-226.042-96.058-283.44,26.795-544.074
	c10.972-23.146,21.061-46.677,29.113-70.995c-10.249,1.754-129.441,144.315-222.447,41.368
	c-22.928-23.07-39.618-55.976-48.939-64.306c-0.016-1.139-0.032-2.278-0.048-3.401c7.892-4.347,15.415-9.335,23.114-14.035
	c-15.635-32.595-19.088-36.081-20.676-77.956c0.642-0.305,1.925-0.898,2.55-1.203c6.512,19.521,21.029,36.524,40.165,44.496
	c7.138,3.625,15.126,4.668,22.857,6.336c49.265-8.957,97.297-49.304,136.182-85.447c-5.655-11.976-20.445-63.492-64.482-86.153
	c-35.827-16.277-69.191-11.853-104.984,4.411c-1.973,0.738-2.534,3-3.401,4.716c-15.044,37.84-33.377,67.037-71.139,82.929
	c-0.385,0.85-1.139,2.534-1.524,3.368c6.737,19.377,21.109,35,36.524,48.041c0.289,0.626,0.834,1.877,1.107,2.502
	c-14.677,4.555-29.867-0.93-43.918-5.165c-7.154-4.844-15.864-6.978-22.36-12.8c-25.497-19.082-26.007-32.425-36.54-33.604
	c-28.873-8.726-53.912-27.702-73.529-50.254c-10.897-10.81-56.028-64.032-63.552-82.463c-16.706-30.24-6.576-59.783,17.051-76.031
	c12.447-9.352,27.654-13.442,41.609-19.89c17.512-5.927,90.24-55.563,134.963-79.4c4.94-2.807,11.228-4.187,14.693-8.999
	c1.343-3.157,9.554-26.113,27.718-43.229c40.278-33.059,54.794-31.808,76.384-40.839c-3.473-9.429-14.115-167.386,105.144-257.271
	c14.918-12.672,32.754-20.933,50.126-29.594c22.421-9.66,84.458-28.995,93.563-30.429c-26.277,24.271-79.4,66.503-80.923,78.197
	C608.498,108.53,700.25,64.454,807.611,56.418 M352.275,494.495c-9.64,6.224-17.741,14.565-27.734,20.291
	c-5.069,2.47-6.368,8.517-9.977,12.479c-7.17,9.207-12.383,19.633-18.238,29.659c9.175,15.864,13.249,33.909,17.035,51.65
	c10.458-33.973,22.489-68.701,45.474-96.483c11.212-13.698,26.13-24.654,43.517-28.873
	C384.965,479.69,366.663,484.342,352.275,494.495z" fill="#00FFFF"/>
</svg>
