<svg xmlns="http://www.w3.org/2000/svg" width="32" height="32" viewBox="0 0 32 32" id="brassiere"><path fill="#0bf" d="M15.7 18l-.07.33A6.89 6.89 0 019 23c-3.87 0-7-2.5-7-6.5C2 13 5 11 5 9 6.91 11.87 13.38 17.45 15.7 18zM16.3 18l.07.33A6.89 6.89 0 0023 23c3.87 0 7-2.5 7-6.5C30 13 27 11 27 9 25.09 11.87 18.62 17.45 16.3 18z"></path><path fill="none" stroke="#000" stroke-linecap="round" stroke-linejoin="round" stroke-width="2" d="M5,9c2,3,9,9,11,9s9-6,11-9"></path><path fill="none" stroke="#000" stroke-linecap="round" stroke-linejoin="round" stroke-width="2" d="M5 4V9c0 2-3 4-3 7.5 0 4 3.13 6.5 7 6.5a6.89 6.89 0 006.63-4.71M27 4V9c0 2 3 4 3 7.5 0 4-3.13 6.5-7 6.5a6.93 6.93 0 01-5.31-2.38"></path><path fill="none" stroke="#000" stroke-linecap="round" stroke-linejoin="round" stroke-width="2" d="M4,21.5,5,28a41.72,41.72,0,0,1,11-2,41.72,41.72,0,0,1,11,2l1-6.34"></path></svg>