<?xml version="1.0" encoding="utf-8"?>
<!-- Generator: Adobe Illustrator 26.5.0, SVG Export Plug-In . SVG Version: 6.00 Build 0)  -->
<svg version="1.1" id="Layer_1" xmlns="http://www.w3.org/2000/svg" xmlns:xlink="http://www.w3.org/1999/xlink" x="0px" y="0px"
	 viewBox="0 0 920 132.5" style="enable-background:new 0 0 920 132.5;" xml:space="preserve">
<style type="text/css">
	.st0{fill:#D1B000;}
	.st1{fill:#FFFFFF;}
	.st2{clip-path:url(#SVGID_00000029747569288121221730000007606381897954061210_);}
	.st3{fill:#252525;}
</style>
<g>
	<path id="path6700" class="st0" d="M904.6,48c-6.9,0.2-13.6,2.5-19.2,6.6l1.1-6.4h-15.9l-9.5,51.6h16.1l5.9-32
		c3.6-7,19.3-9,18.7,4.9l-5.1,27.1h16.1l6.9-37.4C921.4,53.7,914.5,48,904.6,48z"/>
	<path id="path6702" class="st0" d="M837.8,51.4h14.9L844,99.8h-15.1L837.8,51.4z"/>
	
		<ellipse id="ellipse6704" transform="matrix(0.9221 -0.3869 0.3869 0.9221 52.4815 331.3709)" class="st0" cx="849.3" cy="35.3" rx="9.5" ry="8.4"/>
	<path id="path6706" class="st0" d="M808.2,52.6c-13,0-25.4,10.7-27.9,23.6s6.1,23.6,19,23.6s25.4-10.7,27.9-23.6
		S821.4,52.6,808.2,52.6z M805.8,64.1c5.2,0,8.2,5.4,6.9,12.1s-6.7,12.1-12,12.1c-5.2,0-8.2-5.4-6.9-12.1S800.7,64.1,805.8,64.1z"/>
	<path id="path13587" class="st0" d="M750.2,27.5c-19.8,0-39,16.2-43,36.4c-3.9,20.2,9.3,36.4,29.2,36.4c16.4,0,32.8-11.1,40-27.2
		H753c-3.8,5.9-9,9.5-13.9,9.5c-7.5,0-12.1-8.4-10-18.5c2.1-10.2,10-18.5,17.5-18.5c4.9,0,8.5,3.6,10,9.2h23.3
		C779.1,39.1,765.8,27,750.2,27.5z"/>
	<g id="g617" transform="matrix(1.3333333,0,0,-1.3333333,0,494.216)">
		<g id="g731">
			<g id="g619" transform="translate(583.585,275.3534)">
				<path id="path621" class="st1" d="M-427,69.8l-3.8-20.4l-4.5-28.2h11.1l5.5,30.3l5.8-28.3l0,0l0.4-2h0h8.9h0l0.6,1.1v0
					l15.3,27.1l-4.5-28.2h11.1l8.8,48.6h-14.2l-19.2-33.9l-7,33.9h-2.7H-427z"/>
			</g>
			<g id="g623" transform="translate(810.1021,239.1849)">
				<path id="path625" class="st1" d="M-592.7,96.3h11.9l-7.1-38.9h-12.1L-592.7,96.3z"/>
			</g>
			<g id="g627">
				<g>
					<defs>
						<rect id="SVGID_1_" x="-85.9" y="254.7" width="687" height="132.6"/>
					</defs>
					<clipPath id="SVGID_00000111163021116860675240000015679435647275078833_">
						<use xlink:href="#SVGID_1_"  style="overflow:visible;"/>
					</clipPath>
					<g id="g629" style="clip-path:url(#SVGID_00000111163021116860675240000015679435647275078833_);">
						<g id="g635" transform="translate(979.335,239.7816)">
							<path id="path637" class="st1" d="M-716.5,95.8c-4.4,0-9.5-1.5-14.5-5l0.9,4.8h-11.9l-7.2-38.9h12.1l4.4,24.1
								c2.8,5.3,14.6,6.8,14.1-3.7l-3.8-20.4h12.1l5.1,28.2C-704,91.5-709.2,95.8-716.5,95.8"/>
						</g>
						<g id="g639" transform="translate(1088.0322,96.9613)">
							<path id="path641" class="st1" d="M-796,200.3c-0.2-0.1-0.3-0.1-0.5-0.2v0C-796.4,200.2-796.2,200.2-796,200.3 M-791.1,207.5
								C-791.1,207.4-791.1,207.4-791.1,207.5C-791.1,207.4-791.1,207.4-791.1,207.5 M-791.1,207.5
								C-791.1,207.5-791.1,207.5-791.1,207.5C-791.1,207.5-791.1,207.5-791.1,207.5 M-801.5,248.2l-1.4-9.7h-4.5l-2-10.7h4.9
								c-2.4-12-8.1-28.2,7.9-28.2h6.3l1.9,10.7h-3.2c0,0-2.2-0.1-2.8,0.6c-0.7,0.9-0.2,3.5-0.2,3.5l2,13.4h7.3l1.9,10.7h-7.7
								l1.4,9.7L-801.5,248.2z"/>
						</g>
						<g id="g643" transform="translate(1165.4307,275.3534)">
							<path id="path645" class="st0" d="M-852.7,69.8l-3.8-20.4l-4.5-28.2h11.1l5.5,30.3l5.8-28.3l0,0l0.4-2h0h8.9h0l0.6,1.1v0
								l15.3,27.1l-4.5-28.2h11.1l8.8,48.6h-14.2l-19.2-33.9l-7,33.9h-2.7H-852.7z"/>
						</g>
						<g id="g647" transform="translate(829.2671,297.4672)">
							<path id="path649" class="st1" d="M-606.7,53.6c3.6,1.5,7.6,0.2,9-3.1c1.3-3.2-0.5-7-4.1-8.5c-3.6-1.5-7.6-0.2-9,3.1
								C-612.2,48.3-610.3,52.1-606.7,53.6"/>
						</g>
						<g id="g651" transform="translate(1448.9941,205.1425)">
							<path id="path653" class="st0" d="M-1060.1,121.2c3.2,0,5.6-2.5,6-6.3h-14.7C-1066.8,118.7-1063.3,121.2-1060.1,121.2
								 M-1058,130.9c-10.9,0-21.4-8.9-23.5-19.9c-2-11,5.1-19.9,16.1-19.9c8.1,0,16.3,5,20.7,12.6h-13.6c-1.9-1.8-4.1-2.9-6.1-2.9
								c-3.5,0-6,3-6,7.3h15.2h6.2h6.4c0.3,0.9,0.6,1.9,0.7,2.8C-1039.9,122-1047.1,130.9-1058,130.9L-1058,130.9L-1058,130.9z"/>
						</g>
						<g id="g655" transform="translate(1617.4004,186.6019)">
							<path id="path657" class="st0" d="M-1183.3,134.7c-6.9,0-13.5-5.6-14.8-12.6v0c-1.3-6.9,3.2-12.6,10.1-12.6
								c5.7,0,11.4,3.9,13.8,9.4h-8.1c-1.3-2-3.1-3.3-4.8-3.3c-2.6,0-4.2,2.9-3.5,6.4c0.7,3.6,3.4,6.4,6.1,6.4h0
								c1.7,0,3-1.2,3.4-3.1h8C-1173.5,130.9-1177.7,134.7-1183.3,134.7"/>
						</g>
						<g id="g659" transform="translate(1710.1221,163.7845)">
							<path id="path661" class="st0" d="M-1251.2,151.4c2.8,0,4.4-2.9,3.6-6.4v0c-0.8-3.6-3.6-6.4-6.4-6.4c-2.8,0-4.4,2.9-3.6,6.4
								C-1256.8,148.5-1253.9,151.4-1251.2,151.4 M-1249.8,157.5c-6.9,0-13.5-5.6-14.8-12.6c-1.3-6.9,3.2-12.6,10.1-12.6
								c6.9,0,13.5,5.6,14.8,12.6C-1238.4,151.9-1242.9,157.5-1249.8,157.5"/>
						</g>
						<g id="g663" transform="translate(1526.8975,123.3578)">
							<path id="path665" class="st0" d="M-1117.1,181c2.2,0.9,4.7,0.1,5.5-1.9c0.8-2-0.3-4.3-2.5-5.2s-4.7-0.1-5.5,1.9
								C-1120.5,177.7-1119.3,180.1-1117.1,181"/>
						</g>
						<g id="g667" transform="translate(1833.4883,184.8456)">
							<path id="path669" class="st0" d="M-1341.4,136c-2.7,0-5.9-0.9-9-3.1l0.5,3h-7.4l-4.5-24.2h7.5l2.7,15
								c1.7,3.3,9.1,4.2,8.8-2.3l-2.4-12.7h7.5l2.9,16c2.5,2.4,8.2,2.4,8-3.3l-2.4-12.7h7.5l3.2,17.5c1.3,6.6-8.1,9.5-16.4,3.3
								C-1335.8,134.7-1338.3,136-1341.4,136"/>
						</g>
						<path id="path671" class="st0" d="M53.6,290.7h-9.9v9.9h9.9V290.7z M40.2,341.9h9.9V332h-9.9V341.9z M83,370.7L83,370.7
							c-6.5,0-12.9-1.3-19-3.8v-8.4h-9.9v2.9c-3-2.1-5.7-4.6-8.2-7.4h1v-9.9H39c-2.3-4.4-3.9-9.1-4.9-14h6.1v-9.9h-7
							c0-3.1,0.4-6.1,1-9.1h8.3v-9.9h-5.2c3.2-7.4,8.2-13.9,14.5-19v2.7h9.9V276c6.6-3.1,13.9-4.7,21.2-4.8
							c27.5,0,49.7,22.3,49.7,49.7v0C132.7,348.5,110.4,370.7,83,370.7"/>
						<path id="path673" class="st0" d="M34.3,368h9.9V358h-9.9L34.3,368z"/>
						<path id="path675" class="st0" d="M24.6,354.1h9.9v-9.9h-9.9V354.1z"/>
						<path id="path677" class="st0" d="M0.1,352.7h9.9v-9.9H0.1V352.7z"/>
						<path id="path679" class="st0" d="M10.2,333.8h9.9v-9.9h-9.9V333.8z"/>
						<path id="path681" class="st0" d="M18.4,311.2h9.9v-9.9h-9.9V311.2z"/>
						<path id="path683" class="st0" d="M0,301h9.9v-9.9H0V301z"/>
						<path id="path685" class="st0" d="M27.1,285.8h9.9v-9.9h-9.9L27.1,285.8z"/>
						<g id="g687" transform="translate(198.0127,256.7631)">
							<path id="path689" class="st3" d="M-144.9,83.4h8.4h1.9l5.1-25.1l14,25.1h10.3l-6.4-35.9h-8l3.3,20.8l-11.1-20l-0.5-0.8h0
								h-6.5h0l-0.3,1.5l0,0l-4.2,20.9l-4-22.4h-8l3.3,20.8L-144.9,83.4z"/>
						</g>
						<g id="g691" transform="translate(378.1587,187.4955)">
							<path id="path693" class="st3" d="M-276.7,134.1c1.5,2.8,4,4.7,6.3,4.7c2.3,0,4-1.8,4.3-4.7H-276.7z M-268.8,145.9
								c-7.9,0-15.5-6.6-17-14.7c-1.5-8.1,3.7-14.7,11.7-14.7c5.9,0,11.8,3.7,15,9.3h-9.9c-1.4-1.4-3-2.1-4.5-2.1
								c-2.5,0-4.3,2.2-4.4,5.4h11h4.5h4.7c0.2,0.7,0.4,1.4,0.5,2.1v0C-255.7,139.3-260.9,145.9-268.8,145.9"/>
						</g>
					</g>
				</g>
			</g>
		</g>
	</g>
</g>
</svg>
